<?xml version="1.0" encoding="UTF-8"?>
<svg width="18px" height="18px" viewBox="0 0 18 18" version="1.1" xmlns="http://www.w3.org/2000/svg" xmlns:xlink="http://www.w3.org/1999/xlink">
    <!-- Generator: Sketch 53 (72520) - https://sketchapp.com -->
    <title>形状</title>
    <desc>Created with Sketch.</desc>
    <g id="店铺管理" stroke="none" stroke-width="1" fill="none" fill-rule="evenodd">
        <g id="设备管理/设备列表/分账批量配置-1" transform="translate(-877.000000, -443.000000)" fill="#EF5657" fill-rule="nonzero">
            <g id="分组-16" transform="translate(469.000000, 273.000000)">
                <g id="分组-15">
                    <g id="分组-21" transform="translate(408.000000, 170.000000)">
                        <path d="M9,0 C4.02942857,0 0,4.02942857 0,9 C0,13.9705714 4.02942857,18 9,18 C13.9705714,18 18,13.9705714 18,9 C18,4.02942857 13.9705714,0 9,0 Z M14.3397551,9.00165306 C14.3397551,9.306 14.0930816,9.55267347 13.7887347,9.55267347 L4.21126531,9.55267347 C3.90691837,9.55267347 3.6602449,9.306 3.6602449,9.00165306 L3.6602449,8.99853061 C3.6602449,8.69418367 3.90691837,8.4475102 4.21126531,8.4475102 L13.7887347,8.4475102 C14.0930816,8.4475102 14.3397551,8.69418367 14.3397551,8.99853061 L14.3397551,9.00165306 Z" id="形状"></path>
                    </g>
                </g>
            </g>
        </g>
    </g>
</svg>