<?xml version="1.0" encoding="UTF-8"?>
<svg width="18px" height="19px" viewBox="0 0 18 19" version="1.1" xmlns="http://www.w3.org/2000/svg" xmlns:xlink="http://www.w3.org/1999/xlink">
    <!-- Generator: Sketch 53 (72520) - https://sketchapp.com -->
    <title>形状</title>
    <desc>Created with Sketch.</desc>
    <g id="店铺管理" stroke="none" stroke-width="1" fill="none" fill-rule="evenodd">
        <g id="设备管理/设备列表/分账批量配置-1" transform="translate(-877.000000, -606.000000)" fill="#EF5657" fill-rule="nonzero">
            <g id="分组-16" transform="translate(469.000000, 273.000000)">
                <g id="分组-15">
                    <g id="分组-21" transform="translate(408.000000, 170.000000)">
                        <path d="M15.3635779,166.251039 C13.6646071,164.552245 11.4051882,163.618304 8.99999748,163.618304 C6.5973222,163.618304 4.33536971,164.554771 2.63641701,166.253565 C0.9374462,167.952359 0,170.211493 0,172.617049 C0,175.022606 0.937464297,177.28174 2.63641701,178.983042 C4.33538781,180.681836 6.5973222,181.618304 8.99999748,181.618304 C11.4026728,181.618304 13.6646252,180.681836 15.3635779,178.983042 C17.0650461,177.28174 18.0025104,175.022588 17.999995,172.617049 C18.0025104,170.211493 17.0650642,167.952359 15.3635779,166.251057 L15.3635779,166.251039 Z M13.5012268,173.263215 L9.64334823,173.263215 L9.64334823,177.137861 C9.64334823,177.493778 9.35431996,177.784044 8.99996128,177.784044 C8.6456026,177.784044 8.35657433,177.496304 8.35657433,177.137861 L8.35657433,173.263215 L4.50122934,173.263215 C4.14685256,173.263215 3.85784239,172.97293 3.85784239,172.617031 C3.85784239,172.261132 4.14687066,171.970848 4.50122934,171.970848 L8.35910792,171.970848 L8.35910792,168.096202 C8.35910792,167.740285 8.64813619,167.450019 9.00249487,167.450019 C9.35687165,167.450019 9.64588182,167.740303 9.64588182,168.096202 L9.64588182,171.970848 L13.5037604,171.970848 C13.8581372,171.970848 14.1471474,172.261132 14.1471474,172.617031 C14.1446319,172.972948 13.8581191,173.263215 13.5012268,173.263215 L13.5012268,173.263215 Z" id="形状"></path>
                    </g>
                </g>
            </g>
        </g>
    </g>
</svg>