<?xml version="1.0" standalone="no"?><!DOCTYPE svg PUBLIC "-//W3C//DTD SVG 1.1//EN" "http://www.w3.org/Graphics/SVG/1.1/DTD/svg11.dtd"><svg class="icon" width="200px" height="200.00px" viewBox="0 0 1024 1024" version="1.1" xmlns="http://www.w3.org/2000/svg"><path fill="#000000" d="M512 24.697905c268.01981 0 487.302095 219.282286 487.302095 487.302095 0 268.01981-219.282286 487.302095-487.302095 487.302095-268.01981 0-487.302095-219.282286-487.302095-487.302095C24.697905 243.98019 243.98019 24.697905 512 24.697905z m0 913.700571c237.568 0 426.398476-188.830476 426.398476-426.398476S749.568 85.601524 512 85.601524 85.601524 274.432 85.601524 512 274.432 938.398476 512 938.398476z m-42.642286-201.020952h85.284572v85.284571H469.333333v-85.284571zM512 201.337905c60.903619 0 109.641143 18.285714 140.092952 54.832762 36.571429 30.47619 54.832762 66.998857 54.832762 115.736381 0 24.380952-6.095238 54.808381-18.285714 73.094095s-36.547048 48.713143-73.094095 79.189333c-24.380952 24.356571-42.642286 36.547048-48.713143 48.713143-6.095238 6.095238-6.095238 18.285714-12.190476 36.571429-6.095238 18.261333-6.095238 36.522667-6.095238 66.998857h-73.094096v-24.380953c0-30.45181 6.095238-54.808381 12.190477-79.189333 6.095238-18.285714 12.190476-30.45181 30.451809-48.713143 6.095238-12.190476 24.380952-30.47619 48.737524-48.737524 30.45181-24.380952 42.617905-42.642286 54.808381-54.832762 6.095238-18.285714 12.190476-30.45181 12.190476-48.713142 0-30.47619-12.190476-54.832762-36.571429-79.189334-24.356571-18.285714-54.808381-30.47619-85.26019-30.47619-30.47619 0-54.832762 12.190476-79.189333 30.47619-24.380952 18.285714-36.547048 48.737524-42.642286 91.355429l-73.094095-12.190476c6.095238-54.808381 30.47619-97.450667 60.928-127.902477C408.454095 213.528381 457.142857 201.337905 512 201.337905z"  /></svg>