<?xml version="1.0" standalone="no"?><!DOCTYPE svg PUBLIC "-//W3C//DTD SVG 1.1//EN" "http://www.w3.org/Graphics/SVG/1.1/DTD/svg11.dtd"><svg class="icon" width="200px" height="200.00px" viewBox="0 0 1024 1024" version="1.1" xmlns="http://www.w3.org/2000/svg"><path d="M969.784889 929.792H54.215111a39.992889 39.992889 0 1 0 0 79.985778h915.569778a39.992889 39.992889 0 1 0 0-79.985778zM271.928889 798.663111l261.688889-110.762667a36.807111 36.807111 0 0 0 11.377778-7.566222l441.287111-441.344a80.270222 80.270222 0 0 0 0.227555-113.322666L898.446222 37.546667a80.270222 80.270222 0 0 0-113.322666 0.227555L343.779556 479.118222a35.555556 35.555556 0 0 0-7.566223 11.377778l-110.933333 261.518222a35.214222 35.214222 0 0 0 7.623111 38.968889 35.100444 35.100444 0 0 0 39.082667 7.68zM841.671111 94.435556l0.227556-0.284445 88.007111 88.007111-0.227556 0.227556-68.892444 68.892444-88.007111-88.007111 68.835555-68.835555z m-435.2 435.2l309.76-309.816889 88.007111 88.007111-309.816889 309.76-152.632889 64.682666L406.471111 529.635556z"  opacity=".65" /></svg>