<?xml version="1.0" standalone="no"?><!DOCTYPE svg PUBLIC "-//W3C//DTD SVG 1.1//EN" "http://www.w3.org/Graphics/SVG/1.1/DTD/svg11.dtd"><svg class="icon" width="200px" height="177.78px" viewBox="0 0 1152 1024" version="1.1" xmlns="http://www.w3.org/2000/svg"><path fill="#333333" d="M1076.032 32H76.032a59.968 59.968 0 1 0 0 120h999.936a60.032 60.032 0 0 0 0-120z m0 420.032H476.032a59.968 59.968 0 1 0 0 120h600a59.968 59.968 0 1 0 0-120.064zM377.92 372.8l-273.536-18.432a20.032 20.032 0 0 0-21.312 21.376l18.752 273.152a9.984 9.984 0 0 0 17.088 6.4l265.408-265.472a9.984 9.984 0 0 0-6.4-17.024z m698.048 499.2H76.032a59.968 59.968 0 1 0 0 120h1000.064a59.968 59.968 0 1 0 0-120z"  opacity=".65" /></svg>