<?xml version="1.0" encoding="UTF-8"?>
<svg width="20px" height="22px" viewBox="0 0 20 22" version="1.1" xmlns="http://www.w3.org/2000/svg" xmlns:xlink="http://www.w3.org/1999/xlink">
    <!-- Generator: Sketch 54.1 (76490) - https://sketchapp.com -->
    <title>iconfontzhizuobiaozhun0262</title>
    <desc>Created with Sketch.</desc>
    <g id="取消订单" stroke="none" stroke-width="1" fill="none" fill-rule="evenodd">
        <g id="订单管理/订单列表" transform="translate(-1226.000000, -485.000000)" fill="#595959" fill-rule="nonzero" stroke="#595959" stroke-width="0.5">
            <g id="iconfontzhizuobiaozhun0262" transform="translate(1227.000000, 486.000000)">
                <path d="M17.7294324,13.6991366 C17.8997096,13.8693937 17.8997096,14.1454564 17.7294526,14.3157135 L12.1728608,19.8723097 C12.0026038,20.0425668 11.7265414,20.0425668 11.5562642,19.8722895 L11.5562642,19.8722895 C11.3860072,19.7020525 11.3860072,19.4259697 11.5562642,19.2557327 L17.112856,13.6991366 C17.2831331,13.5288592 17.5591754,13.5288592 17.7294324,13.6991366 L17.7294324,13.6991366 Z" id="路径"></path>
                <path d="M17.7294349,19.8722867 C17.5591777,20.0425644 17.283115,20.0425644 17.1128579,19.8723271 L11.5562618,14.31572 C11.3860046,14.1454626 11.3860046,13.8693792 11.5562819,13.6991217 L11.5562819,13.6991217 C11.7265189,13.5288642 12.0026018,13.5288642 12.1728387,13.6991217 L17.7294349,19.2557287 C17.8997122,19.4259862 17.8997122,19.7020494 17.7294349,19.8722867 L17.7294349,19.8722867 Z" id="路径"></path>
                <path d="M13.5714286,4.64284062 C13.5714286,4.84010946 13.3797874,5 13.143385,5 L5.42806341,5 C5.19164122,5 5,4.84009294 5,4.64284062 L5,4.64284062 C5,4.44560483 5.19166102,4.28571429 5.42806341,4.28571429 L13.143385,4.28571429 C13.3797874,4.28569777 13.5714286,4.44560483 13.5714286,4.64284062 L13.5714286,4.64284062 Z" id="路径"></path>
                <path d="M13.5714286,9.64284062 C13.5714286,9.84010946 13.3797874,10 13.143385,10 L5.42806341,10 C5.19164122,10 5,9.84009294 5,9.64284062 L5,9.64284062 C5,9.44560483 5.19166102,9.28571429 5.42806341,9.28571429 L13.143385,9.28571429 C13.3797874,9.28571429 13.5714286,9.44562135 13.5714286,9.64284062 L13.5714286,9.64284062 Z" id="路径"></path>
                <path d="M9.28571429,13.9285549 C9.28571429,14.1258237 9.10318773,14.2857143 8.8780289,14.2857143 L5.40770425,14.2857143 C5.18252655,14.2857143 5,14.1258072 5,13.9285549 L5,13.9285549 C5,13.7313191 5.18254541,13.5714286 5.40770425,13.5714286 L8.8780289,13.5714286 C9.10320661,13.5714286 9.28571429,13.7313357 9.28571429,13.9285549 L9.28571429,13.9285549 Z" id="路径"></path>
                <path d="M15.2955051,0 L2.56163779,0 C1.14914348,0 0,1.14410369 0,2.55040323 L0,17.4486166 C0,18.8549161 1.14914348,19.9990198 2.56163779,19.9990198 L9.53739063,19.9990198 C9.54669341,19.9995999 9.55603636,20 9.56547978,20 C9.80986339,20 10.0079944,19.802738 10.0079944,19.5594262 C10.0079944,19.3246762 9.8235664,19.1328753 9.59113775,19.1196525 C9.59101719,19.1193724 9.59089663,19.1191124 9.59079618,19.1188523 L2.56163779,19.1188523 C1.6366248,19.1188523 0.884064723,18.3695927 0.884064723,17.4486366 L0.884064723,2.55042325 C0.884064723,1.62946708 1.63662482,0.880207503 2.56163779,0.880207503 L15.2955051,0.880207503 C16.2205181,0.880207503 16.9730781,1.6294671 16.9730781,2.55042325 L16.9730781,11.6915903 C16.9724955,11.7008123 16.9721137,11.7100943 16.9721137,11.7194563 C16.9721137,11.9627681 17.1702246,12.1600301 17.4146283,12.1600301 C17.6590119,12.1600301 17.8571429,11.9627681 17.8571429,11.7194563 L17.8571429,2.55042327 C17.8571429,1.1441237 16.7079994,0 15.2955051,0 Z" id="路径"></path>
            </g>
        </g>
    </g>
</svg>