<?xml version="1.0" standalone="no"?><!DOCTYPE svg PUBLIC "-//W3C//DTD SVG 1.1//EN" "http://www.w3.org/Graphics/SVG/1.1/DTD/svg11.dtd"><svg class="icon" width="200px" height="200.00px" viewBox="0 0 1024 1024" version="1.1" xmlns="http://www.w3.org/2000/svg"><path fill="#333333" d="M486.4 809.053091a37.701818 37.701818 0 0 0 53.434182 0l170.077091-170.077091a37.701818 37.701818 0 0 0-53.248-53.341091l-105.704728 105.704727V61.021091a37.748364 37.748364 0 0 0-75.496727 0v630.318545l-105.704727-105.704727a37.608727 37.608727 0 0 0-53.248 0 37.841455 37.841455 0 0 0-0.093091 53.341091l169.937455 170.077091z m476.625455-156.997818a37.748364 37.748364 0 0 0-37.79491 37.748363v213.178182a22.528 22.528 0 0 1-22.481454 22.481455H121.111273a22.528 22.528 0 0 1-22.434909-22.481455v-213.271273a37.701818 37.701818 0 0 0-75.403637 0v243.153455c0 37.422545 30.440727 67.770182 67.723637 67.770182h842.007272c37.376 0 67.723636-30.440727 67.723637-67.770182v-243.153455a37.701818 37.701818 0 0 0-37.701818-37.655272z"  opacity=".65" /></svg>