<?xml version="1.0" standalone="no"?><!DOCTYPE svg PUBLIC "-//W3C//DTD SVG 1.1//EN" "http://www.w3.org/Graphics/SVG/1.1/DTD/svg11.dtd"><svg class="icon" width="200px" height="200.00px" viewBox="0 0 1024 1024" version="1.1" xmlns="http://www.w3.org/2000/svg"><path fill="#333333" d="M903.488 615.488a40.448 40.448 0 0 0-40.512 40.512v279.04H161.024v-279.04a40.448 40.448 0 1 0-81.024 0v279.04c0 44.736 36.224 80.96 81.024 80.96h701.952c44.8 0 81.024-36.224 81.024-81.024V656a40.448 40.448 0 0 0-40.512-40.512zM935.04 8H89.024C44.16 8 8 44.224 8 89.024v228.928a195.2 195.2 0 0 0 349.888 119.04 194.688 194.688 0 0 0 154.688 76.16c62.656 0 118.4-29.504 154.112-75.392a195.2 195.2 0 0 0 349.312-119.808V88.96c0-44.8-36.224-81.024-81.024-81.024z m-617.6 195.2v114.752a114.112 114.112 0 1 1-228.352 0V88.96h228.352v114.176z m195.2 228.928a114.112 114.112 0 0 1-114.176-114.176V88.96h227.2v228.928c0 4.288 0.128 8.512 0.448 12.8A114.24 114.24 0 0 1 512.64 432.128z m422.4-114.176a114.112 114.112 0 1 1-228.352 0V88.96h228.352v228.928z"  opacity=".65" /></svg>