<?xml version="1.0" standalone="no"?><!DOCTYPE svg PUBLIC "-//W3C//DTD SVG 1.1//EN" "http://www.w3.org/Graphics/SVG/1.1/DTD/svg11.dtd"><svg class="icon" width="200px" height="200.00px" viewBox="0 0 1024 1024" version="1.1" xmlns="http://www.w3.org/2000/svg"><path fill="#333333" d="M926.4 18.304H97.6C53.824 18.304 18.304 53.76 18.304 97.664v828.736c0 43.84 35.456 79.36 79.36 79.36h828.736c43.84 0 79.36-35.52 79.36-79.36V97.6c0-43.84-35.52-79.296-79.36-79.296z m0 908.096H97.6V97.6h828.8v828.8z"  opacity=".65" /><path fill="#333333" d="M410.624 763.264h343.872a39.68 39.68 0 1 0 0-79.36H410.624a39.68 39.68 0 1 0 0 79.36zM410.624 340.096h343.872a39.68 39.68 0 1 0 0-79.36H410.624a39.68 39.68 0 1 0 0 79.36zM410.624 551.68h343.872a39.68 39.68 0 1 0 0-79.36H410.624a39.68 39.68 0 1 0 0 79.36z"  opacity=".65" /><path fill="#333333" d="M271.04 725.056m-64 0a64 64 0 1 0 128 0 64 64 0 1 0-128 0Z"  opacity=".65" /><path fill="#333333" d="M271.04 301.888m-64 0a64 64 0 1 0 128 0 64 64 0 1 0-128 0Z"  opacity=".65" /><path fill="#333333" d="M271.04 513.472m-64 0a64 64 0 1 0 128 0 64 64 0 1 0-128 0Z"  opacity=".65" /></svg>