<?xml version="1.0" encoding="UTF-8"?>
<svg width="24px" height="26px" viewBox="0 0 24 26" version="1.1" xmlns="http://www.w3.org/2000/svg" xmlns:xlink="http://www.w3.org/1999/xlink">
    <!-- Generator: Sketch 59 (86127) - https://sketch.com -->
    <title>icon -Excel@2x</title>
    <desc>Created with Sketch.</desc>
    <g id="页面-1" stroke="none" stroke-width="1" fill="none" fill-rule="evenodd">
        <g id="营销管理/金币会员/批量充值/已选" transform="translate(-536.000000, -543.000000)" fill-rule="nonzero">
            <g id="所选文件" transform="translate(520.000000, 534.000000)">
                <g id="icon--Excel" transform="translate(16.000000, 9.000000)">
                    <path d="M0.462235412,3.05357303 L0.462235412,22.9464882 L14.6889186,25.711159 L14.6889186,0.288913392 L0.462235412,3.05357303 Z M8.74077629,17.1788055 L7.38818149,13.8262336 L5.92151312,17.0040213 L4.29188127,16.892799 L6.37781026,13.0000105 L4.43854811,8.83711366 L6.06817996,8.72589137 L7.19262475,11.9036791 L7.42077304,11.9036791 L8.74077458,8.48756707 L10.5659632,8.37634478 L8.30077406,12.7775659 L10.5822569,17.2900032 L8.74077629,17.1788055 Z" id="形状" fill="#207245"></path>
                    <polygon id="路径" fill="#E5E7E6" points="14.6889186 23.0894604 23.5378274 23.0894604 23.5378274 2.91054494 14.6889186 2.91054494"></polygon>
                    <path d="M14.6889186,9.28201231 L20.9466941,9.28201231 L20.9466941,7.39123171 L14.6889186,7.39123171 L14.6889186,9.28201231 Z M14.6889186,13.254233 L20.9466941,13.254233 L20.9466941,11.41112 L14.6889186,11.41112 L14.6889186,13.254233 Z M14.6889186,17.7666702 L20.9466941,17.7666702 L20.9466941,15.8758896 L14.6889186,15.8758896 L14.6889186,17.7666702 Z" id="形状" fill="#FFFFFF"></path>
                </g>
            </g>
        </g>
    </g>
</svg>