<?xml version="1.0" standalone="no"?><!DOCTYPE svg PUBLIC "-//W3C//DTD SVG 1.1//EN" "http://www.w3.org/Graphics/SVG/1.1/DTD/svg11.dtd"><svg class="icon" width="200px" height="200.00px" viewBox="0 0 1024 1024" version="1.1" xmlns="http://www.w3.org/2000/svg"><path fill="#333333" d="M961.176926 504.114444a36.505545 36.505545 0 0 0-42.086337-29.593556 36.044746 36.044746 0 0 0-30.054355 41.420738 363.519455 363.519455 0 0 1 4.863993 60.31351c0 100.351849-39.73114 194.764508-111.820632 265.727601a382.361026 382.361026 0 0 1-270.130795 110.028635 382.668226 382.668226 0 0 1-270.079595-110.079835A370.687444 370.687444 0 0 1 130.048573 575.999136a370.687444 370.687444 0 0 1 111.820632-265.881201 382.668226 382.668226 0 0 1 270.079595-110.079835c4.300794 0 8.550387 0.0512 12.799981 0.1536L441.651306 282.111577a35.532747 35.532747 0 0 0 0 50.892723 36.863945 36.863945 0 0 0 51.711922 0l137.983793-135.782196a35.532747 35.532747 0 0 0 0-50.892723L493.363228 10.598384a36.863945 36.863945 0 0 0-51.711922 0 35.532747 35.532747 0 0 0 0 50.892724l67.686298 66.5599a457.727313 457.727313 0 0 0-319.077921 131.225403 446.36093 446.36093 0 0 0-97.535854 142.335787 438.783342 438.783342 0 0 0-35.839946 174.438138c0 60.467109 12.083182 119.091021 35.737546 174.386938a446.36093 446.36093 0 0 0 97.535854 142.335787A457.983313 457.983313 0 0 0 512 1023.998464a457.983313 457.983313 0 0 0 321.842717-131.071803 447.026529 447.026529 0 0 0 97.484654-142.233387 438.373742 438.373742 0 0 0 35.788746-174.386938c0-24.729563-2.047997-48.998327-5.887991-72.140692z"  opacity=".65" /></svg>