<?xml version="1.0" standalone="no"?><!DOCTYPE svg PUBLIC "-//W3C//DTD SVG 1.1//EN" "http://www.w3.org/Graphics/SVG/1.1/DTD/svg11.dtd"><svg class="icon" width="200px" height="200.00px" viewBox="0 0 1024 1024" version="1.1" xmlns="http://www.w3.org/2000/svg"><path d="M0 0m128 0l768 0q128 0 128 128l0 768q0 128-128 128l-768 0q-128 0-128-128l0-768q0-128 128-128Z" fill="#EF5657" /><path d="M382.208 707.008l403.392-448a35.968 35.968 0 1 1 53.568 48.192l-429.376 476.8a35.84 35.84 0 0 1-17.92 10.88 36.032 36.032 0 0 1-36.864-10.496l-169.6-188.352a36.032 36.032 0 0 1 53.504-48.192l143.36 159.168z" fill="#FFFFFF" /></svg>