<?xml version="1.0" encoding="UTF-8"?>
<svg width="52px" height="38px" viewBox="0 0 52 38" version="1.1" xmlns="http://www.w3.org/2000/svg" xmlns:xlink="http://www.w3.org/1999/xlink">
    <!-- Generator: Sketch 50.2 (55047) - http://www.bohemiancoding.com/sketch -->
    <title>logo</title>
    <desc>Created with Sketch.</desc>
    <defs>
        <polygon id="path-1" points="0 0 35.6234029 0 35.6234029 37.7425335 0 37.7425335"></polygon>
    </defs>
    <g id="Page-1" stroke="none" stroke-width="1" fill="none" fill-rule="evenodd">
        <g id="首页" transform="translate(-30.000000, -15.000000)">
            <g id="top">
                <g id="logo" transform="translate(30.000000, 15.000000)">
                    <path d="M41.0065703,14.9999891 C39.9021085,15.003603 39.0039531,14.1109595 39.0000109,13.0064076 C38.9963973,11.9018557 39.888968,11.0032984 40.9937582,11.000013 C42.09822,10.9960705 42.9963754,11.8887141 42.9999891,12.993266 C43.0036027,14.0978179 42.111032,14.9963751 41.0065703,14.9999891 Z" id="Fill-1" fill="#FFFFFF"></path>
                    <g id="Group-5" transform="translate(16.000000, 0.000000)">
                        <mask id="mask-2" fill="white">
                            <use xlink:href="#path-1"></use>
                        </mask>
                        <g id="Clip-4"></g>
                        <path d="M30.5571176,8.19382957 C29.6528824,5.67673098 26.0142353,0.560646474 19.8357353,0.0548718266 C11.7505588,-0.606916906 7.12561765,4.83725211 5.76476471,9.92015352 C7.28629412,11.2763789 11.4765882,15.2848437 19.3132059,16.6177873 C19.3010294,16.4695338 19.2893824,16.3234211 19.2801176,16.1821253 C18.6371471,6.18919577 29.1295588,5.37594225 30.6410294,12.3896183 C31.0534412,14.3038014 30.2275588,16.5744352 28.0029706,18.2761394 C26.5425882,19.3925901 25.605,22.4986887 24.7587353,25.2143507 C24.3733235,26.4517592 24.1411765,27.6699 23.805,28.4802099 C23.1583235,30.0403507 21.4597059,34.8029282 15.0757941,36.5541394 C13.1921471,37.0708859 10.7931176,37.0559 8.505,36.3373789 C8.75647059,36.344069 9.01111765,36.3446042 9.27026471,36.335238 C18.9913235,35.9902944 20.3722941,29.9292944 20.0972647,24.0615056 C16.6108235,25.1594915 13.6469118,25.1792944 12.6680294,25.1485197 C12.4761176,25.1426324 12.3252353,24.9842099 12.3244412,24.7904634 C12.3239118,24.5940408 12.4787647,24.4364211 12.6727941,24.4308014 C18.612,24.2635479 25.6298824,20.3947732 25.047,18.348393 C24.6692647,17.022407 22.9648235,17.1687873 21.3961765,17.5742099 C19.6440882,18.026731 17.8006765,17.9643789 16.0795588,17.4032099 C14.5286471,16.8971676 13.0897059,16.3606183 11.8185882,15.7566324 C9.68241176,19.197238 0,32.7396887 0,32.7396887 C4.91294118,36.4904493 10.2891176,38.6941817 15.2804118,37.3419704 C24.2094706,34.9228155 25.1346176,26.7196324 25.5274412,25.4592099 C26.298,22.9846606 27.0045,20.1796183 28.5008824,18.9162521 C31.1966471,16.6408014 31.5778235,13.532562 31.59,13.3976887 C31.5939706,13.3548718 35.2829118,9.96537887 35.2829118,9.96537887 C35.8896176,9.39805493 35.6828824,8.41059014 34.6862647,8.32013943" id="Fill-3" fill="#FFFFFF" mask="url(#mask-2)"></path>
                    </g>
                    <path d="M50.6010433,9.00000137 L47,9.00676604 C47,9.00676604 47.603395,10.5044654 47.713133,12 L50.8765347,9.56498713 C51.1356474,9.36042332 50.959739,8.9991896 50.6010433,9.00000137" id="Fill-6" fill="#FFFFFF"></path>
                    <path d="M5,26.4647777 C4.99973662,26.4647777 7.79316962,28.1538917 7.57350875,32.4769513 C7.492387,34.0808053 9.62762755,37.9992818 14.5070486,30.8564742 C20.4297271,22.1867611 26,14.2358599 26,14.2358599 C23.5861009,12.9167423 22.5035996,11.9097086 21.3394497,11" id="Fill-8" fill="#FFFFFF"></path>
                    <path d="M19.1296419,12 L2.81491821,18.6596233 C0.965892585,19.5011484 -0.150085983,21.3723013 0.0163546537,23.3516307 L0.323030381,27 L19.4117647,12.2432246 L19.1296419,12 Z" id="Fill-10" fill="#FFFFFF"></path>
                </g>
            </g>
        </g>
    </g>
</svg>