<?xml version="1.0" standalone="no"?><!DOCTYPE svg PUBLIC "-//W3C//DTD SVG 1.1//EN" "http://www.w3.org/Graphics/SVG/1.1/DTD/svg11.dtd"><svg class="icon" width="200px" height="141.53px" viewBox="0 0 1447 1024" version="1.1" xmlns="http://www.w3.org/2000/svg"><path d="M1221.526069 341.768828c0.070621 24.717241-20.126897 44.773517-45.09131 44.844138a44.985379 44.985379 0 0 1-45.409104-44.561656c-0.070621-24.717241 20.126897-44.773517 45.091311-44.844138a44.985379 44.985379 0 0 1 45.409103 44.561656" fill="#FFFFFF" /><path d="M1303.693241 222.24331c-24.999724-68.219586-125.598897-206.918621-296.395034-220.619034-223.514483-17.937655-351.408552 129.624276-389.014069 267.405241 42.01931 36.758069 157.907862 145.44331 374.572138 181.565793-0.353103-4.025379-0.670897-7.980138-0.918069-11.828965-17.796414-270.830345 272.313379-292.89931 314.085517-102.753104 11.405241 51.835586-11.440552 113.416828-72.915862 159.532138-40.395034 30.260966-66.312828 114.440828-89.688276 188.062897-10.663724 33.544828-17.090207 66.56-26.376827 88.523034-17.902345 42.301793-64.865103 171.396414-241.346207 218.853518-52.082759 14.018207-118.395586 13.594483-181.671724-5.861518 6.956138 0.176552 13.982897 0.176552 21.186206-0.07062 268.711724-9.357241 306.917517-173.656276 299.325794-332.694069-96.397241 29.766621-178.317241 30.296276-205.400276 29.484138a9.745655 9.745655 0 0 1-9.533793-9.710345c0-5.331862 4.272552-9.604414 9.639724-9.745655 164.193103-4.555034 358.258759-109.426759 342.157241-164.899311-10.487172-35.945931-57.555862-31.955862-100.987586-20.974345a267.405241 267.405241 0 0 1-146.961655-4.625655c-42.902069-13.735724-82.661517-28.248276-117.795311-44.632276-59.074207 93.21931-326.761931 460.340966-326.761931 460.340966 135.838897 101.693793 284.460138 161.403586 422.452966 124.751448 246.854621-65.57131 272.454621-287.920552 283.294896-322.100965 21.327448-67.089655 40.854069-143.112828 82.237794-177.363862 74.504828-61.687172 85.062621-145.937655 85.380413-149.574621 0.105931-1.165241 102.117517-93.042759 102.117518-93.042759 16.772414-15.36 11.052138-42.160552-16.489931-44.596965" fill="#FEFFFF" /><path d="M1393.452138 252.468966l-81.460966 0.211862s13.629793 40.183172 16.136828 80.295724l71.538759-65.324138c5.861517-5.473103 1.906759-15.183448-6.214621-15.183448" fill="#EF5657" /><path d="M153.811862 735.726345s78.247724 45.903448 72.068414 163.486896c-2.259862 43.643586 57.555862 150.210207 194.206896-44.032 165.888-235.837793 321.853793-452.078345 321.853794-452.078344-67.584-35.87531-97.915586-63.276138-130.507035-88.02869" fill="#FEFFFF" /><path d="M591.801379 303.457103L87.110621 512.423724a148.833103 148.833103 0 0 0-86.580966 147.244138l9.498483 114.476138L600.558345 311.084138 591.83669 303.457103z" fill="#FEFFFF" /></svg>