<?xml version="1.0" standalone="no"?><!DOCTYPE svg PUBLIC "-//W3C//DTD SVG 1.1//EN" "http://www.w3.org/Graphics/SVG/1.1/DTD/svg11.dtd"><svg class="icon" width="200px" height="200.00px" viewBox="0 0 1024 1024" version="1.1" xmlns="http://www.w3.org/2000/svg"><path fill="#333333" d="M844.783009 233.017706a389.622921 389.622921 0 0 1 28.249368 147.729181v38.484646l-0.272941 20.402321v442.436956c0.272941 40.941113-31.388186 74.239884-70.418713 74.239884H221.318101c-39.030527 0-70.691654-33.298772-70.691654-74.239884V380.746887c0-51.381096 9.552926-100.988078 28.454073-147.729181a382.11705 382.11705 0 0 1 77.515173-120.912752 358.712381 358.712381 0 0 1 114.70335-81.882225A342.540641 342.540641 0 0 1 652.564486 30.086259c43.192874 19.447028 81.81399 47.082279 114.771586 82.018695a383.754695 383.754695 0 0 1 77.515173 120.912752z m-445.029892-135.788023c-33.435242 15.079976-63.66343 36.915236-90.206918 64.823428-26.611723 28.112897-47.901102 61.070493-62.776373 98.053965a321.797144 321.797144 0 0 0-23.268199 120.571576v31.661127h576.79204v-31.592892c0-41.96464-7.778811-82.496342-23.199964-120.639811a311.152455 311.152455 0 0 0-62.776372-98.1222 293.684247 293.684247 0 0 0-91.776327-65.50578 271.644281 271.644281 0 0 0-110.677474-23.609375 264.752528 264.752528 0 0 0-110.541004 23.882316l-1.364704 0.545882h-0.204705zM800.634843 484.942019H223.501627v397.060556c0 0.682352 0.068235 1.159998 0.204706 1.501174h576.723805a4.912934 4.912934 0 0 0 0.204705-1.501174V484.942019zM478.291817 648.706469a62.639902 62.639902 0 1 1 96.211615-52.677565c0.068235 21.562319-10.712924 40.941113-28.658779 52.472859v95.597498a33.776418 33.776418 0 0 1-67.552836 0V648.706469z"  fill-opacity=".25" /></svg>