<?xml version="1.0" encoding="UTF-8"?>
<svg width="16px" height="18px" viewBox="0 0 16 18" version="1.1" xmlns="http://www.w3.org/2000/svg" xmlns:xlink="http://www.w3.org/1999/xlink">
    <!-- Generator: Sketch 53 (72520) - https://sketchapp.com -->
    <title>icon-</title>
    <desc>Created with Sketch.</desc>
    <g id="点位管理" stroke="none" stroke-width="1" fill="none" fill-rule="evenodd" fill-opacity="0.6">
        <g id="点位管理/点位模型列表" transform="translate(-23.000000, -188.000000)" fill="#171A2E" fill-rule="nonzero">
            <g id="icon-" transform="translate(23.000000, 188.000000)">
                <path d="M6.98294664,17.6997855 C5.74285825,16.3129182 4.42755796,14.9956957 3.04302892,13.7541097 C0.422616204,11.7793418 -0.645181039,8.34352043 0.391936825,5.2237647 C1.42905469,2.10400897 4.33848875,5.71380018e-16 7.61538462,0 C10.8922805,-2.85690009e-16 13.8017145,2.10400897 14.8388324,5.2237647 C15.8759503,8.34352043 14.808153,11.7793418 12.1877403,13.7541097 C10.8028764,14.9896166 9.49292648,16.3071972 8.26491552,17.6997855 C8.10253051,17.8903254 7.86520772,18.0000165 7.61538462,18 C7.37154847,17.9950783 7.14142287,17.8858391 6.98294664,17.6997855 Z M7.61538462,1.70264337 C5.0728959,1.70632289 2.81726384,3.34048735 2.01325748,5.76128273 C1.20925111,8.18207812 2.03681276,10.8477133 4.06860402,12.3817007 C5.32082382,13.4715654 6.50530497,14.6374399 7.61538462,15.8727661 C8.72329688,14.6353557 9.90791126,13.46935 11.1621652,12.3817007 C13.1939565,10.8477133 14.0215181,8.18207812 13.2175118,5.76128273 C12.4135054,3.34048735 10.1578733,1.70632289 7.61538462,1.70264337 L7.61538462,1.70264337 Z" id="形状"></path>
                <path d="M7.6235217,10.3846035 C6.50275757,10.3878806 5.49052775,9.71527086 5.05935724,8.68075927 C4.62818673,7.64624768 4.86310413,6.45384414 5.65444626,5.66018163 C6.44578838,4.86651913 7.63749931,4.62811115 8.67326939,5.05625035 C9.70903947,5.48438955 10.3846106,6.49464512 10.3846154,7.61541366 C10.3846219,9.14163843 9.14974046,10.3801408 7.6235217,10.3846035 L7.6235217,10.3846035 Z M7.6235217,5.66402551 C6.82951952,5.66075124 6.11202836,6.13696017 5.80666242,6.86990046 C5.50129648,7.60284074 5.6684265,8.44761038 6.22987559,9.00905929 C6.79132469,9.5705082 7.63609461,9.73763815 8.36903515,9.43227232 C9.10197568,9.12690648 9.57818477,8.40941557 9.5749105,7.61541366 C9.57047384,6.53953483 8.69940089,5.66846218 7.6235217,5.66402551 L7.6235217,5.66402551 Z" id="形状"></path>
            </g>
        </g>
    </g>
</svg>