<?xml version="1.0" encoding="UTF-8"?>
<svg width="14px" height="15px" viewBox="0 0 14 15" version="1.1" xmlns="http://www.w3.org/2000/svg" xmlns:xlink="http://www.w3.org/1999/xlink">
    <!-- Generator: Sketch 54.1 (76490) - https://sketchapp.com -->
    <title>dayin</title>
    <desc>Created with Sketch.</desc>
    <g id="收益类型-vip" stroke="none" stroke-width="1" fill="none" fill-rule="evenodd">
        <g id="报表/营收报表" transform="translate(-1225.000000, -645.000000)" fill="#595959" fill-rule="nonzero">
            <g id="dayin" transform="translate(1225.000000, 645.000000)">
                <path d="M13.1764706,11.2058824 L11.5294118,11.2058824 L11.5294118,14.5 L2.47058823,14.5 L2.47058823,11.2058824 L0,11.2058824 L0,5.31270588 C0,4.34752941 0.681882359,3.79411764 1.64705882,3.79411764 L2.47058823,3.79411764 L2.47058823,0.5 L11.5294118,0.5 L11.5294118,3.79411764 L12.3529412,3.79411764 C13.3181177,3.79411764 14,4.34752941 14,5.31270588 L14,11.2058824 L13.1764706,11.2058824 L13.1764706,11.2058824 Z M3.29411764,13.6764706 L10.7058824,13.6764706 L10.7058824,9.55882353 L3.29411764,9.55882353 L3.29411764,13.6764706 Z M10.7058824,1.32352941 L3.29411764,1.32352941 L3.29411764,3.79411764 L10.7058824,3.79411764 L10.7058824,1.32352941 Z M13.1245882,5.31270588 C13.1245882,4.83011765 12.8355294,4.61764706 12.3529412,4.61764706 L2.47058823,4.61764706 L1.75,4.43729412 C1.26741177,4.43729412 0.82352941,4.95858823 0.82352941,5.44117647 L0.82352941,10.3823529 L2.47058823,10.3823529 L2.47058823,8.73529412 L11.3745882,8.81270588 L11.5294118,10.3823529 L13.1764706,10.3823529 L13.1245882,5.31270588 L13.1245882,5.31270588 Z M6.96294118,6.26470588 L2.91941177,6.26470588 C2.67152941,6.26470588 2.47058823,6.08023529 2.47058823,5.85294118 C2.47058823,5.62564706 2.67152941,5.44117647 2.91941177,5.44117647 L6.96294118,5.44117647 C7.21082354,5.44117647 7.41176471,5.62564706 7.41176471,5.85294118 C7.41176471,6.08023529 7.21082353,6.26470588 6.96294118,6.26470588 Z" id="形状"></path>
            </g>
        </g>
    </g>
</svg>