<?xml version="1.0" standalone="no"?><!DOCTYPE svg PUBLIC "-//W3C//DTD SVG 1.1//EN" "http://www.w3.org/Graphics/SVG/1.1/DTD/svg11.dtd"><svg class="icon" width="200px" height="200.00px" viewBox="0 0 1024 1024" version="1.1" xmlns="http://www.w3.org/2000/svg"><path  d="M512 0C229.2224 0 0 229.2224 0 512s229.2224 512 512 512 512-229.2224 512-512S794.7776 0 512 0z m310.9888 822.9888A438.3232 438.3232 0 0 1 512 951.8592a439.4496 439.4496 0 0 1-311.0912-128.8704A438.3232 438.3232 0 0 1 72.1408 512a439.4496 439.4496 0 0 1 128.8704-311.0912A438.3232 438.3232 0 0 1 512 72.1408a439.4496 439.4496 0 0 1 311.0912 128.8704A438.3232 438.3232 0 0 1 951.8592 512a437.4016 437.4016 0 0 1-128.8704 310.9888z m-111.0016-324.7104L420.5056 250.2656a21.504 21.504 0 0 0-14.336-5.376c-10.752 0-20.992 7.5264-20.992 19.0464v496.0256c0 11.4688 10.24 19.0464 20.992 19.0464a20.992 20.992 0 0 0 14.336-5.376l291.4816-248.0128a17.8176 17.8176 0 0 0 0-27.3408z"  opacity=".65" /></svg>