<?xml version="1.0" encoding="UTF-8"?>
<svg width="20px" height="20px" viewBox="0 0 20 20" version="1.1" xmlns="http://www.w3.org/2000/svg" xmlns:xlink="http://www.w3.org/1999/xlink">
    <!-- Generator: Sketch 53 (72520) - https://sketchapp.com -->
    <title>huishou copy</title>
    <desc>Created with Sketch.</desc>
    <g id="充值7.1" stroke="none" stroke-width="1" fill="none" fill-rule="evenodd">
        <g id="营销管理/金币会员" transform="translate(-1330.000000, -421.000000)" fill="#595959" fill-rule="nonzero">
            <g id="huishou-copy" transform="translate(1330.000000, 421.000000)">
                <path d="M19.4147055,3.1749157 L16.2833801,3.1749157 L16.2833801,2.01480939 C16.2833801,1.05687929 15.4200707,0.334821429 14.273869,0.334821429 L5.72856969,0.334821429 C5.14083648,0.334821429 4.63845872,0.493674159 4.27996586,0.796938462 C3.91903426,1.10020277 3.71905865,1.53343748 3.71905865,2.01721625 L3.71905865,3.17732256 L0.585294476,3.17732256 C0.260943787,3.17732256 0,3.43485653 0,3.75496885 C0,4.07508117 0.260943787,4.33261514 0.585294476,4.33261514 L1.37544202,4.33261514 L2.56310206,18.2057536 C2.57773442,19.1564631 3.38251433,19.9266582 4.36776003,19.9266582 L15.1469333,19.9266582 C16.0736496,19.9266582 16.846726,19.1323945 16.9491525,18.0757832 L18.4806731,4.33020828 L19.4147055,4.33020828 C19.7390562,4.33020828 20,4.07267431 20,3.75256199 C20,3.43244967 19.7390562,3.1749157 19.4147055,3.1749157 Z M4.8896476,2.01480939 C4.8896476,1.55750608 5.41397391,1.49011401 5.72856969,1.49011401 L14.2763078,1.49011401 C14.7616144,1.49011401 15.1152299,1.71154509 15.1152299,2.01480939 L15.1152299,3.1749157 L4.8896476,3.1749157 L4.8896476,2.01480939 Z M15.783441,17.9530333 L15.783441,17.9626608 C15.7468601,18.3501652 15.4932325,18.7713656 15.1469333,18.7713656 L4.36776003,18.7713656 C4.01902207,18.7713656 3.73369101,18.506611 3.73369101,18.1792781 L3.73369101,18.1552095 L2.55090843,4.33020828 L17.302768,4.33020828 L15.783441,17.9530333 L15.783441,17.9530333 Z" id="形状"></path>
                <path d="M7.61797014,9.87280841 C7.67517842,9.90670796 7.73477037,9.92123634 7.79674601,9.92123634 C7.92069728,9.92123634 8.0398812,9.85585863 8.10662419,9.73963159 L9.06009551,8.05918226 C9.22456932,7.76861465 9.52014543,7.59427409 9.85147671,7.59427409 C10.182808,7.59427409 10.4783841,7.76861465 10.6428579,8.05918226 L11.5248189,9.60887616 L10.7429724,9.30620157 C10.5594292,9.23355967 10.3520492,9.32799414 10.2805388,9.51686309 C10.2090285,9.70331063 10.3019919,9.91397215 10.4879188,9.98661405 L11.760803,10.480579 C11.8394644,10.5120571 11.9228932,10.5290069 12.0063219,10.5290069 C12.0992854,10.5290069 12.1898651,10.5096357 12.2756776,10.468472 C12.4401514,10.3909873 12.5664863,10.2481249 12.6236946,10.0713629 L13.0217689,8.83160781 C13.0837445,8.64031747 12.9812463,8.43692015 12.7929357,8.37396383 C12.6046252,8.31100752 12.4043962,8.41512758 12.3424205,8.60641792 L12.1398079,9.23598107 L11.2626143,7.69355135 C10.9694218,7.17537245 10.4402453,6.86543367 9.85147671,6.86543367 C9.26270817,6.86543367 8.73591526,7.17537245 8.44033915,7.69355135 L7.48686783,9.37400068 C7.38913702,9.55076264 7.44872898,9.77353114 7.61797014,9.87280841 Z M12.6570661,10.8752666 C12.4854412,10.9745439 12.428233,11.1973124 12.5259638,11.371653 L13.4484473,12.9939888 C13.6129211,13.2845564 13.6129211,13.6308161 13.4484473,13.9213837 C13.2839735,14.2119513 12.9883974,14.3862919 12.6570661,14.3862919 L11.005177,14.3862919 L11.479529,13.8414776 C11.6106313,13.691351 11.5963292,13.4613184 11.4485412,13.3281415 C11.3007531,13.1949647 11.0743037,13.2094931 10.9432014,13.3596197 L10.042171,14.3959775 C9.92060338,14.5291543 9.85862775,14.7083377 9.87054614,14.8899424 C9.88246453,15.0739686 9.97066063,15.2458877 10.1136813,15.3596934 L11.1148262,16.1732827 C11.1815692,16.2265534 11.2602306,16.2531888 11.338892,16.2531888 C11.4437738,16.2531888 11.5486557,16.2071822 11.6177823,16.1175906 C11.7417336,15.9601998 11.7155131,15.7325885 11.5605741,15.6066758 L10.9503524,15.1127109 L12.6546824,15.1127109 C13.2434509,15.1127109 13.7702439,14.8027721 14.06582,14.2845932 C14.3590124,13.7664143 14.3590124,13.1489582 14.06582,12.6307793 L13.1433365,11.0084435 C13.0456056,10.8341029 12.8263072,10.773568 12.6570661,10.8752666 Z M5.7539337,11.3643888 L6.46426984,11.1803626 L5.63951714,12.6307793 C5.34632471,13.1489582 5.34632471,13.7664143 5.63951714,14.2845932 C5.93270957,14.8027721 6.46188616,15.1127109 7.0506547,15.1127109 L8.98858516,15.1127109 C9.18643046,15.1127109 9.34613691,14.9504773 9.34613691,14.7495014 C9.34613691,14.5485255 9.18643046,14.3862919 8.98858516,14.3862919 L7.04827102,14.3862919 C6.71693974,14.3862919 6.42136363,14.2119513 6.25688982,13.9213837 C6.09241602,13.6308161 6.09241602,13.2845564 6.25688982,12.9939888 L7.14123448,11.4394521 L7.26280207,12.1828209 C7.29140621,12.3595828 7.44396162,12.4854955 7.61558646,12.4854955 C7.63465589,12.4854955 7.65610899,12.4830741 7.67517842,12.4806527 C7.87064004,12.4467531 8.00174234,12.2603056 7.96837085,12.061751 L7.76575819,10.8316815 C7.73477037,10.6500768 7.63227221,10.4878432 7.4797168,10.3885659 C7.32716138,10.2868672 7.1388508,10.2553891 6.96484228,10.3013956 L5.57515783,10.6597623 C5.38446356,10.7081903 5.26766332,10.9067448 5.31772057,11.1004565 C5.36777781,11.2941683 5.56323944,11.4128167 5.7539337,11.3643888 L5.7539337,11.3643888 Z" id="形状"></path>
            </g>
        </g>
    </g>
</svg>