<?xml version="1.0" standalone="no"?><!DOCTYPE svg PUBLIC "-//W3C//DTD SVG 1.1//EN" "http://www.w3.org/Graphics/SVG/1.1/DTD/svg11.dtd"><svg class="icon" width="200px" height="200.00px" viewBox="0 0 1024 1024" version="1.1" xmlns="http://www.w3.org/2000/svg"><path fill="#333333" d="M409.088 414.08a234.24 234.24 0 0 1-4.48-81.728A117.056 117.056 0 1 1 521.472 156.8a231.04 231.04 0 0 1 77.312-27.264 198.016 198.016 0 1 0-189.76 284.544z m400.64 184.064a396.032 396.032 0 0 0-568.96 356.288 40.448 40.448 0 1 0 81.088 0 315.072 315.072 0 0 1 378.496-308.544 250.88 250.88 0 0 1 109.44-47.744z m148.8 185.216h-98.816v-98.816a40.64 40.64 0 0 0-81.216 0v98.816h-98.752a40.64 40.64 0 0 0 0 81.216h98.752v98.752a40.64 40.64 0 0 0 81.28 0V864.64h98.752a40.64 40.64 0 0 0 0-81.28z m-123.648-422.912a198.016 198.016 0 1 0-396.032 0 198.016 198.016 0 0 0 396.032 0zM636.8 477.44a117.056 117.056 0 1 1 0.128-234.112A117.056 117.056 0 0 1 636.8 477.44z m-190.464 19.008a232.896 232.896 0 0 1-37.248-81.92A396.16 396.16 0 0 0 24.96 810.496a40.448 40.448 0 1 0 80.96 0 315.072 315.072 0 0 1 340.544-313.984z"  opacity=".65" /></svg>