<?xml version="1.0" standalone="no"?><!DOCTYPE svg PUBLIC "-//W3C//DTD SVG 1.1//EN" "http://www.w3.org/Graphics/SVG/1.1/DTD/svg11.dtd"><svg class="icon" width="200px" height="175.04px" viewBox="0 0 1170 1024" version="1.1" xmlns="http://www.w3.org/2000/svg"><path fill="#333333" d="M827.507018 457.910801a40.700654 40.700654 0 1 1 0.14588 81.547187H339.390935a40.700654 40.700654 0 0 1 0-81.547187h488.116083z m0 220.717165a40.700654 40.700654 0 1 1 0.14588 81.547187H339.390935a40.700654 40.700654 0 0 1 0-81.547187h488.116083zM1073.388566 75.776885c51.71463 0 93.509387 42.086518 93.655267 93.728208v739.75991c0 51.78757-41.794757 93.801148-93.509387 93.801148H93.509387A93.582327 93.582327 0 0 1 0 909.265003V169.505093C0 117.717523 41.794757 75.776885 93.509387 75.776885h150.183953V43.61024a40.700654 40.700654 0 1 1 81.255427 0v32.093705h517.000418V43.68318a40.700654 40.700654 0 1 1 81.328368 0v32.093705h150.111013zM93.509387 169.505093v127.7913H1073.680327V169.505093h-150.256894v21.15267a40.700654 40.700654 0 1 1-81.328367 0v-21.15267H325.094648v21.15267a40.700654 40.700654 0 1 1-81.328367 0v-21.15267h-150.256894z m980.025059 739.75991V378.47888H93.509387v530.859063h980.025059z"  fill-opacity=".25" /></svg>