<?xml version="1.0" standalone="no"?><!DOCTYPE svg PUBLIC "-//W3C//DTD SVG 1.1//EN" "http://www.w3.org/Graphics/SVG/1.1/DTD/svg11.dtd"><svg class="icon" width="200px" height="200.00px" viewBox="0 0 1024 1024" version="1.1" xmlns="http://www.w3.org/2000/svg"><path d="M455.460571 950.125714V212.626286c0-0.146286-0.292571-0.219429-0.292571-0.146286L187.757714 490.642286A56.466286 56.466286 0 1 1 106.203429 412.233143L470.308571 33.353143a56.832 56.832 0 0 1 81.554286 0l366.006857 380.928a56.32 56.32 0 0 1-1.462857 79.945143 56.612571 56.612571 0 0 1-80.018286-1.462857L568.978286 214.381714c-0.146286-0.073143-0.292571 0-0.292572 0.146286v736.841143a56.612571 56.612571 0 0 1-53.101714 56.466286 57.417143 57.417143 0 0 1-60.123429-57.782858z"  /></svg>