<?xml version="1.0" standalone="no"?><!DOCTYPE svg PUBLIC "-//W3C//DTD SVG 1.1//EN" "http://www.w3.org/Graphics/SVG/1.1/DTD/svg11.dtd"><svg class="icon" width="200px" height="200.00px" viewBox="0 0 1024 1024" version="1.1" xmlns="http://www.w3.org/2000/svg"><path fill="#333333" d="M143.985778 999.310222a75.719111 75.719111 0 0 1-6.656-6.712889c2.446222 2.446222 4.437333 4.835556 6.656 6.712889z m-10.695111-6.087111a110.364444 110.364444 0 0 1-6.712889-6.712889c2.104889 2.389333 4.380444 4.551111 6.712889 6.712889z m865.848889-824.092444a41.984 41.984 0 0 0-29.240889-11.719111h-204.8V93.582222c0-43.178667-35.100444-78.222222-78.279111-78.222222H337.123556c-43.178667 0-78.222222 35.043556-78.222223 78.222222v63.829334H52.906667a39.822222 39.822222 0 0 0 0 79.473777h35.100444v691.484445c0 43.178667 35.043556 78.222222 78.222222 78.222222h702.520889c43.178667 0 78.222222-35.043556 78.222222-78.222222V236.885333h22.869334c21.845333 0 40.846222-17.749333 40.846222-39.765333a39.082667 39.082667 0 0 0-11.662222-27.989333zM336.896 93.866667h349.525333v64.284444H337.009778v-64.284444z m531.740444 834.446222H166.286222V236.885333H868.693333v691.370667zM511.431111 370.005333a39.936 39.936 0 0 0-39.936 39.992889v370.631111a39.936 39.936 0 1 0 79.928889 0V409.998222a39.936 39.936 0 0 0-39.992889-39.992889z m-216.405333 0a39.936 39.936 0 0 0-39.936 39.992889v370.631111a39.936 39.936 0 1 0 79.928889 0V409.998222a39.936 39.936 0 0 0-39.992889-39.992889z m430.648889 0a39.936 39.936 0 0 0-39.992889 39.992889v370.631111a39.936 39.936 0 1 0 79.928889 0V409.998222a39.936 39.936 0 0 0-39.992889-39.992889z"  opacity=".65" /></svg>