<?xml version="1.0" standalone="no"?><!DOCTYPE svg PUBLIC "-//W3C//DTD SVG 1.1//EN" "http://www.w3.org/Graphics/SVG/1.1/DTD/svg11.dtd"><svg class="icon" width="200px" height="200.00px" viewBox="0 0 1024 1024" version="1.1" xmlns="http://www.w3.org/2000/svg"><path fill="#333333" d="M823.978667 0H200.021333C160.199111 0 128 32.199111 128 72.021333v879.957334c0 39.822222 32.199111 72.021333 72.021333 72.021333h623.957334c39.822222 0 72.021333-32.199111 72.021333-72.021333V72.021333c0-39.822222-32.199111-72.021333-72.021333-72.021333z m0 942.990222H200.021333v-243.996444c0 0.512 0.398222 1.024 0.967111 1.024h622.023112a1.024 1.024 0 0 0 0.967111-1.024v244.053333z m0-314.026666a1.024 1.024 0 0 0-0.967111-0.967112H200.988444a1.024 1.024 0 0 0-0.967111 1.024v-244.053333c0 0.568889 0.398222 1.024 0.967111 1.024h622.023112a1.024 1.024 0 0 0 0.967111-0.967111v243.996444z m0-313.969778a1.024 1.024 0 0 0-0.967111-0.967111H200.988444a1.024 1.024 0 0 0-0.967111 0.967111V72.021333h623.957334v242.972445zM285.013333 821.020444a36.010667 36.010667 0 1 0 71.964445 0 36.010667 36.010667 0 0 0-71.964445 0z m0-314.026666a36.010667 36.010667 0 1 0 71.964445 0 36.010667 36.010667 0 0 0-71.964445 0z m0-314.026667a36.010667 36.010667 0 1 0 71.964445 0 36.010667 36.010667 0 0 0-71.964445 0z"  opacity=".65" /></svg>