<?xml version="1.0" standalone="no"?><!DOCTYPE svg PUBLIC "-//W3C//DTD SVG 1.1//EN" "http://www.w3.org/Graphics/SVG/1.1/DTD/svg11.dtd"><svg class="icon" width="200px" height="199.80px" viewBox="0 0 1025 1024" version="1.1" xmlns="http://www.w3.org/2000/svg"><path fill="#333333" d="M961.106651 424.374857L542.51008 21.504a80.896 80.896 0 0 0-108.544 0L15.223223 424.374857a40.448 40.448 0 1 0 54.198857 60.050286L488.164937 81.554286l418.742857 402.870857a40.448 40.448 0 1 0 54.198857-60.050286z m-111.835428 149.357714a40.448 40.448 0 0 0-40.521143 40.521143v311.588572H647.908937V655.872c0-44.763429-36.205714-80.969143-80.969143-80.969143H409.39008c-44.763429 0-80.969143 36.205714-80.969143 80.969143v269.970286h-160.914286v-311.588572a40.448 40.448 0 1 0-80.969142 0v311.588572c0 44.836571 36.205714 81.042286 80.969142 81.042285h641.243429c44.836571 0 81.042286-36.205714 81.042286-81.042285v-311.588572a40.448 40.448 0 0 0-40.521143-40.521143zM409.39008 655.872h157.549714v269.970286H409.39008V655.872z"  opacity=".65" /></svg>