<?xml version="1.0" encoding="UTF-8"?>
<svg width="14px" height="18px" viewBox="0 0 14 18" version="1.1" xmlns="http://www.w3.org/2000/svg" xmlns:xlink="http://www.w3.org/1999/xlink">
    <!-- Generator: Sketch 53 (72520) - https://sketchapp.com -->
    <title>yushi-2</title>
    <desc>Created with Sketch.</desc>
    <g id="浴室管理" stroke="none" stroke-width="1" fill="none" fill-rule="evenodd">
        <g id="浴室管理/浴室列表" transform="translate(-22.000000, -242.000000)" fill="#686A77" fill-rule="nonzero">
            <g id="yushi-2" transform="translate(22.000000, 242.000000)">
                <path d="M13.8181399,0.153552918 C13.717533,0.0583933633 13.5841194,0 13.4375833,0 L4.76133119,0 C4.42889098,0 4.16206397,0.257363342 4.16206397,0.575282764 L4.16206397,3.47332376 L0.489911891,3.47332376 C0.218710666,3.47332376 0,3.77394144 0,4.14160336 L0,4.18918314 C0,4.55900777 0.218710666,4.85746274 0.489911891,4.85746274 L9.31270015,4.85746274 C9.58390137,4.85746274 9.80261204,4.55684505 9.80261204,4.18918314 L9.80261204,4.14160336 C9.80261204,3.77177873 9.58390137,3.47332376 9.31270015,3.47332376 L5.55962512,3.47332376 L5.55962512,1.38413898 L12.5846117,1.38413898 L12.5846117,17.4960869 C12.5846117,17.7750774 12.8536258,18 13.1838789,18 L13.3829056,18 C13.7153458,18 13.9821729,17.7750774 13.9821729,17.4960869 L13.9821729,0.934293813 C13.9931084,0.888876752 13.9996697,0.839134258 13.9996697,0.789391763 L13.9996697,0.592584502 C14.0018568,0.529865704 13.9931084,0.467146906 13.9756115,0.41091626 C13.9537405,0.311431271 13.8968757,0.222759867 13.8181399,0.153552918 Z M2.08868686,5.53871864 L1.41068379,5.53871864 C1.40412247,5.53871864 1.39974826,5.54304408 1.39974826,5.54953223 L1.39974826,8.29618302 C1.39974826,8.30267117 1.40412247,8.30699661 1.41068379,8.30699661 L2.08868686,8.30699661 C2.09524818,8.30699661 2.09962239,8.30267117 2.09962239,8.29618302 L2.09962239,5.54953223 C2.09962239,5.54304408 2.09524818,5.53871864 2.08868686,5.53871864 Z M2.08868686,9.69113559 L1.41068379,9.69113559 C1.40412247,9.69113559 1.39974826,9.69546102 1.39974826,9.70194918 L1.39974826,12.4507627 C1.39974826,12.4572508 1.40412247,12.4615763 1.41068379,12.4615763 L2.08868686,12.4615763 C2.09524818,12.4615763 2.09962239,12.4572508 2.09962239,12.4507627 L2.09962239,9.70194918 C2.09962239,9.69762374 2.09524818,9.69113559 2.08868686,9.69113559 Z M4.18830925,5.53871864 L3.51030618,5.53871864 C3.50374487,5.53871864 3.49937065,5.54304408 3.49937065,5.54953223 L3.49937065,8.29618302 C3.49937065,8.30267117 3.50374487,8.30699661 3.51030618,8.30699661 L4.18830925,8.30699661 C4.19487057,8.30699661 4.19924478,8.30267117 4.19924478,8.29618302 L4.19924478,5.54953223 C4.19924478,5.54304408 4.19487057,5.53871864 4.18830925,5.53871864 Z M4.18830925,9.69113559 L3.51030618,9.69113559 C3.50374487,9.69113559 3.49937065,9.69546102 3.49937065,9.70194918 L3.49937065,12.4507627 C3.49937065,12.4572508 3.50374487,12.4615763 3.51030618,12.4615763 L4.18830925,12.4615763 C4.19487057,12.4615763 4.19924478,12.4572508 4.19924478,12.4507627 L4.19924478,9.70194918 C4.19924478,9.69762374 4.19487057,9.69113559 4.18830925,9.69113559 Z M6.29011875,5.53871864 L5.61211568,5.53871864 C5.60555436,5.53871864 5.60118015,5.54304408 5.60118015,5.54953223 L5.60118015,8.29618302 C5.60118015,8.30267117 5.60555436,8.30699661 5.61211568,8.30699661 L6.29011875,8.30699661 C6.29668007,8.30699661 6.30105428,8.30267117 6.30105428,8.29618302 L6.30105428,5.54953223 C6.30105428,5.54304408 6.29668007,5.53871864 6.29011875,5.53871864 Z M6.29011875,9.69113559 L5.61211568,9.69113559 C5.60555436,9.69113559 5.60118015,9.69546102 5.60118015,9.70194918 L5.60118015,12.4507627 C5.60118015,12.4572508 5.60555436,12.4615763 5.61211568,12.4615763 L6.29011875,12.4615763 C6.29668007,12.4615763 6.30105428,12.4572508 6.30105428,12.4507627 L6.30105428,9.70194918 C6.30105428,9.69762374 6.29668007,9.69113559 6.29011875,9.69113559 Z M8.38974114,5.53871864 L7.71173807,5.53871864 C7.70517675,5.53871864 7.70080254,5.54304408 7.70080254,5.54953223 L7.70080254,8.29618302 C7.70080254,8.30267117 7.70517675,8.30699661 7.71173807,8.30699661 L8.38974114,8.30699661 C8.39630246,8.30699661 8.40067667,8.30267117 8.40067667,8.29618302 L8.40067667,5.54953223 C8.40067667,5.54304408 8.39630246,5.53871864 8.38974114,5.53871864 Z M8.38974114,9.69113559 L7.71173807,9.69113559 C7.70517675,9.69113559 7.70080254,9.69546102 7.70080254,9.70194918 L7.70080254,12.4507627 C7.70080254,12.4572508 7.70517675,12.4615763 7.71173807,12.4615763 L8.38974114,12.4615763 C8.39630246,12.4615763 8.40067667,12.4572508 8.40067667,12.4507627 L8.40067667,9.70194918 C8.40067667,9.69762374 8.39630246,9.69113559 8.38974114,9.69113559 Z" id="形状"></path>
            </g>
        </g>
    </g>
</svg>