<?xml version="1.0" standalone="no"?><!DOCTYPE svg PUBLIC "-//W3C//DTD SVG 1.1//EN" "http://www.w3.org/Graphics/SVG/1.1/DTD/svg11.dtd"><svg class="icon" width="200px" height="200.00px" viewBox="0 0 1024 1024" version="1.1" xmlns="http://www.w3.org/2000/svg"><path fill="#333333" d="M967.68 913.709176l-217.750588-217.690352A406.588235 406.588235 0 0 0 436.705882 30.117647 406.588235 406.588235 0 0 0 30.117647 436.705882a406.588235 406.588235 0 0 0 665.901177 313.22353l217.810823 217.750588a38.128941 38.128941 0 0 0 53.970824 0 38.430118 38.430118 0 0 0-0.120471-53.970824z m-402.432-172.574117a326.896941 326.896941 0 0 1-128.542118 25.901176 329.607529 329.607529 0 0 1-233.59247-96.798117A329.607529 329.607529 0 0 1 106.375529 436.705882a329.607529 329.607529 0 0 1 96.798118-233.59247A329.607529 329.607529 0 0 1 436.705882 106.375529a329.607529 329.607529 0 0 1 233.592471 96.798118 329.607529 329.607529 0 0 1 96.737882 233.532235 329.607529 329.607529 0 0 1-96.798117 233.592471c-30.358588 30.358588-65.656471 54.211765-104.990118 70.836706z"  fill-opacity=".25" opacity=".65" /></svg>