<?xml version="1.0" standalone="no"?><!DOCTYPE svg PUBLIC "-//W3C//DTD SVG 1.1//EN" "http://www.w3.org/Graphics/SVG/1.1/DTD/svg11.dtd"><svg class="icon" width="200px" height="200.00px" viewBox="0 0 1024 1024" version="1.1" xmlns="http://www.w3.org/2000/svg"><path fill="#333333" d="M840.190878 0.006144H178.438819C108.858854-0.659448 51.873938 52.895109 51.208346 119.556709V902.088119c-0.665592 66.6616 55.192938 121.240145 124.772902 121.854538H840.190878c69.579965 0.716791 126.513682-52.837766 127.230473-119.499366V121.911881C968.086943 55.250281 912.228413 0.671736 842.597249 0.006144 841.778059 0.006144 841.010068 0.006144 840.190878 0.006144z m0 950.82379H178.438819c-27.954865 0-50.892189-21.913337-50.89219-48.741815V121.911881c0-26.828478 22.937325-48.741815 50.89219-48.741815H840.190878c27.954865 0 50.84099 21.913337 50.84099 48.741815v97.53483H496.643c-20.377355 0-38.194742 17.049395-38.194741 36.556361 0 19.455767 17.817386 36.556361 38.194741 36.556361h394.440067V902.139318c0 26.828478-22.886125 48.741815-50.84099 48.741815zM509.289249 390.145462c-139.97912 0-254.460946 109.720283-254.460947 243.811475 0 134.091191 114.481826 243.811474 254.460947 243.811474 139.97912 0 254.512146-109.720283 254.512145-243.811474 0-134.091191-114.533026-243.811474-254.460946-243.811475z m0 414.459027c-97.790827 0.614393-177.50827-74.853502-178.173862-168.548378v-2.099174c0-95.077259 78.949453-170.647552 178.173862-170.647553 99.275609 0 178.173862 75.570293 178.173861 170.647553 0 95.077259-78.898253 170.647552-178.173861 170.647552z m-178.173862-487.571749c28.159662 0 50.943389-21.862138 50.943388-48.793015s-22.783727-48.741815-50.892189-48.741815c-28.159662 0-50.943389 21.810938-50.943389 48.741815s22.834926 48.793014 50.943389 48.793015z m-127.179274 0c28.108463 0 50.892189-21.862138 50.892189-48.793015s-22.783727-48.741815-50.892189-48.741815c-28.159662 0-50.943389 21.810938-50.943389 48.741815s22.783727 48.793014 50.943389 48.793015z"  fill-opacity=".65" /></svg>