<?xml version="1.0" standalone="no"?><!DOCTYPE svg PUBLIC "-//W3C//DTD SVG 1.1//EN" "http://www.w3.org/Graphics/SVG/1.1/DTD/svg11.dtd"><svg class="icon" width="200px" height="200.00px" viewBox="0 0 1024 1024" version="1.1" xmlns="http://www.w3.org/2000/svg"><path fill="#333333" d="M512 0c282.6752 0 512 229.3248 512 512s-229.3248 512-512 512S0 794.6752 0 512 229.3248 0 512 0z m311.0912 823.0912a436.0704 436.0704 0 0 0 94.3104-139.8784A435.7632 435.7632 0 0 0 952.0128 512c0-59.392-11.6224-116.992-34.6112-171.2128a437.76 437.76 0 0 0-94.3104-139.8784A439.3472 439.3472 0 0 0 512 71.9872c-59.392 0-116.992 11.6224-171.2128 34.6112a437.76 437.76 0 0 0-139.8784 94.3104A439.3472 439.3472 0 0 0 71.9872 512c0 59.392 11.6224 116.992 34.6112 171.2128a437.76 437.76 0 0 0 94.3104 139.8784A439.3472 439.3472 0 0 0 512 952.0128c59.392 0 116.992-11.6224 171.2128-34.6112a437.76 437.76 0 0 0 139.8784-94.3104z m-215.9616-163.5328c-28.16 26.88-59.2896 48.64-93.184 65.1264 13.312 0.4608 27.8016 0.4096 43.4688-0.0512h146.5856a1022.2592 1022.2592 0 0 0-85.6064-87.9104 37.9904 37.9904 0 0 1-11.264 22.8352z m-90.0096-101.888c-13.312-10.3424-17.664-26.112-8.448-44.4416a33.4336 33.4336 0 0 1 14.592-11.776h-39.5264v167.8848a421.888 421.888 0 0 0 78.7456-55.0912 37.376 37.376 0 0 1 17.3568-10.5472c-20.48-16.5376-41.3696-31.8464-62.72-46.0288z m35.6352-51.5584a1094.144 1094.144 0 0 1 81.7152 58.2144c23.552-17.8688 45.824-39.424 67.4304-65.28-5.632 1.28-11.776 2.0992-18.3296 2.4064h-139.264c2.9184 1.1264 5.7344 2.6624 8.448 4.6592z m195.6352-13.1072c13.312 13.824 13.312 32.1536 1.5872 47.36-18.4832 24.3712-40.9088 47.0528-67.1744 68.096 23.552 23.9104 47.2576 49.4592 71.424 77.1072 9.728 12.5952 12.6464 26.9312 5.376 39.1168 15.5648 1.024 25.9072 12.3904 28.928 28.0576v7.936c-3.2256 16.4864-14.4384 28.16-31.3344 28.16H553.984c-101.376 1.2288-169.3696-15.4624-201.3184-53.1968-16.384 17.6128-40.448 33.8944-72.2944 49.3568-16.8448 6.9632-33.9456 1.9456-42.6496-16.2816-6.912-17.92 0.2048-35.1232 18.688-42.8032 44.6464-16.6912 65.3824-40.6016 66.5088-72.448l0.256-163.2256H272.384c-18.944 0-31.744-13.2608-31.3344-36.0448 3.328-17.152 16.0768-28.16 33.4848-28.16h60.6208c2.7136 0 5.3248 0.1024 7.8336 0.3584a37.888 37.888 0 0 1-14.9504-20.8896 350.2592 350.2592 0 0 0-55.552-110.2336c-13.9264-14.4384-13.9264-34.0992 2.2016-46.6944 15.9744-12.3904 34.4576-7.6288 46.6944 8.192l0.2048 0.256c31.5904 42.1888 54.3744 84.6336 68.096 127.3856 5.9904 18.6368-0.3584 36.1472-18.432 43.6224a35.4816 35.4816 0 0 1-10.5472 2.6624c17.5104 7.3728 27.8016 23.1936 27.8016 45.4144l-0.256 169.3696c-4.3008 27.3408 5.632 47.872 31.8976 61.2352l0.1536-3.8912V304.1792c-1.9456-45.056 23.1424-71.0144 66.3552-68.9664h200.1408c39.3216 2.048 63.232 24.5248 65.28 63.5392v140.288c-1.0752 20.224-8.6016 35.9936-21.6064 46.592a36.864 36.864 0 0 1 17.92 7.3728zM686.592 336.2304V306.176c0.5632-7.5264 1.28-6.7584-5.12-6.7584l-194.56-0.0512c-3.6864-0.3584-2.6624-1.3312-3.1232 3.8912v32.9728h202.752z m-2.9696 98.816c5.6832 0 3.2256 2.304 2.9184-1.5872V400.384h-202.752v34.56h199.8336z"  opacity=".65" /></svg>