<?xml version="1.0" standalone="no"?><!DOCTYPE svg PUBLIC "-//W3C//DTD SVG 1.1//EN" "http://www.w3.org/Graphics/SVG/1.1/DTD/svg11.dtd"><svg class="icon" width="200px" height="200.00px" viewBox="0 0 1024 1024" version="1.1" xmlns="http://www.w3.org/2000/svg"><path fill="#333333" d="M512 0a512 512 0 1 0 0 1024A512 512 0 1 0 512 0z m246.101333 710.912c12.885333 12.885333 13.141333 33.877333 0.512 47.104a32.426667 32.426667 0 0 1-46.250666 0.512L512 558.592 311.637333 758.442667a32.256 32.256 0 0 1-46.250666-0.512 33.621333 33.621333 0 0 1 0.512-47.104L465.322667 512 265.898667 313.088a33.877333 33.877333 0 0 1-0.512-47.104 32.426667 32.426667 0 0 1 46.250666-0.512L512 465.408l200.362667-199.850667a32.256 32.256 0 0 1 46.250666 0.512c12.714667 13.141333 12.458667 34.218667-0.512 47.104L558.677333 512l199.424 198.912z"  /></svg>