<?xml version="1.0" standalone="no"?><!DOCTYPE svg PUBLIC "-//W3C//DTD SVG 1.1//EN" "http://www.w3.org/Graphics/SVG/1.1/DTD/svg11.dtd"><svg class="icon" width="200px" height="200.00px" viewBox="0 0 1024 1024" version="1.1" xmlns="http://www.w3.org/2000/svg"><path d="M455.460571 73.874286v737.572571c0 0.146286-0.292571 0.219429-0.292571 0.146286L187.757714 533.357714A56.466286 56.466286 0 1 0 106.203429 611.766857l364.105142 378.88a56.832 56.832 0 0 0 81.554286 0l366.006857-380.928a56.32 56.32 0 0 0-1.462857-79.945143 56.612571 56.612571 0 0 0-80.018286 1.462857l-267.410285 278.308572c-0.146286 0.073143-0.292571 0-0.292572-0.146286V72.557714A56.612571 56.612571 0 0 0 515.657143 16.091429a57.417143 57.417143 0 0 0-60.123429 57.782857z"  /></svg>