<?xml version="1.0" standalone="no"?><!DOCTYPE svg PUBLIC "-//W3C//DTD SVG 1.1//EN" "http://www.w3.org/Graphics/SVG/1.1/DTD/svg11.dtd"><svg class="icon" width="200px" height="200.00px" viewBox="0 0 1024 1024" version="1.1" xmlns="http://www.w3.org/2000/svg"><path fill="#333333" d="M930.872889 14.222222H94.208C50.119111 14.222222 14.222222 50.062222 14.222222 94.208v835.584c0 44.088889 35.84 79.985778 79.985778 79.985778h307.768889a39.992889 39.992889 0 1 0 0-79.985778h-307.768889V94.208h836.664889v835.584h-93.297778a39.992889 39.992889 0 1 0 0 79.985778h93.297778c44.145778 0 80.042667-35.84 80.042667-79.985778V94.208c0-44.088889-35.896889-79.985778-80.042667-79.985778z"  opacity=".65" /><path fill="#333333" d="M655.36 969.784889a39.992889 39.992889 0 1 0 79.985778 0 39.992889 39.992889 0 0 0-79.985778 0zM695.352889 369.777778a39.992889 39.992889 0 0 0-39.992889 39.992889v417.792a39.992889 39.992889 0 1 0 79.985778 0V409.770667a39.992889 39.992889 0 0 0-39.992889-39.992889zM544.199111 227.555556H197.575111a39.992889 39.992889 0 1 0 0 79.985777h346.624a39.992889 39.992889 0 1 0 0-79.985777z m-142.222222 213.333333H197.575111a39.992889 39.992889 0 1 0 0 79.985778h204.401778a39.992889 39.992889 0 1 0 0-79.985778z m0 213.333333H197.575111a39.992889 39.992889 0 1 0 0 79.985778h204.401778a39.992889 39.992889 0 1 0 0-79.985778z"  opacity=".65" /></svg>