<?xml version="1.0" standalone="no"?><!DOCTYPE svg PUBLIC "-//W3C//DTD SVG 1.1//EN" "http://www.w3.org/Graphics/SVG/1.1/DTD/svg11.dtd"><svg class="icon" width="200px" height="188.24px" viewBox="0 0 1088 1024" version="1.1" xmlns="http://www.w3.org/2000/svg"><path fill="#333333" d="M1069.952 131.392L863.744 12.864a35.968 35.968 0 0 0-35.584 0L621.952 131.392a35.648 35.648 0 0 0-17.792 30.976v9.984l-11.328-6.528a35.968 35.968 0 0 0-35.584 0l-11.456 6.656v-10.112a35.904 35.904 0 0 0-17.92-30.976L321.664 12.864a35.968 35.968 0 0 0-35.584 0L79.808 131.392a35.52 35.52 0 0 0-17.92 30.976v238.08c0 12.672 6.784 24.448 17.92 30.912L286.08 549.888a35.648 35.648 0 0 0 35.584 0l11.52-6.592v10.112c0 12.736 6.784 24.512 17.856 30.912l7.296 4.16-7.296 4.16a35.776 35.776 0 0 0-17.92 30.976v238.08c0 12.672 6.848 24.448 17.92 30.912l206.208 118.528a35.968 35.968 0 0 0 35.52 0l206.208-118.528c11.008-6.4 17.92-18.112 17.92-30.976V623.744a35.904 35.904 0 0 0-17.92-30.976l-7.296-4.16 7.296-4.16c11.008-6.4 17.92-18.112 17.92-30.912v-10.048l11.328 6.528a35.968 35.968 0 0 0 35.584 0l206.208-118.656a35.84 35.84 0 0 0 17.984-30.976v-238.08c0-12.8-6.848-24.448-17.984-30.912zM303.872 466.688L142.848 374.208v-185.6L303.808 96l160.896 92.48v30.528l-113.728 65.28a35.776 35.776 0 0 0-17.92 30.976V449.92l-29.248 16.768zM464.64 278.784v95.488l-79.872 45.952V324.672l79.872-45.888z m271.104 371.2v185.6L574.912 928 414.08 835.52v-185.6l25.408-14.592 117.696 67.584a35.968 35.968 0 0 0 35.52 0L710.4 635.328l25.408 14.592zM491.52 605.312l83.456-48 83.52 48-83.52 48-83.456-48z m273.6-61.184l-25.28 14.592-147.072-84.48a35.968 35.968 0 0 0-35.52 0l-147.072 84.48-25.28-14.592v-30.592L527.808 431.36c11.008-6.4 17.92-18.112 17.92-30.976V232.192l29.312-16.832 29.12 16.768v168.384a35.84 35.84 0 0 0 17.792 30.912l143.104 82.24v30.528z m0-123.968l-79.872-46.08V278.656l79.872 45.952v95.68z m241.92-46.08l-161.024 92.544-29.12-16.64V315.264a35.84 35.84 0 0 0-17.792-30.912L685.184 218.88v-30.4l160.896-92.48 160.832 92.48v185.6z"  opacity=".65" /></svg>