<?xml version="1.0" standalone="no"?><!DOCTYPE svg PUBLIC "-//W3C//DTD SVG 1.1//EN" "http://www.w3.org/Graphics/SVG/1.1/DTD/svg11.dtd"><svg class="icon" width="200px" height="200.00px" viewBox="0 0 1024 1024" version="1.1" xmlns="http://www.w3.org/2000/svg"><path fill="#333333" d="M863.305143 834.267429A380.342857 380.342857 0 0 0 781.604571 713.142857a380.342857 380.342857 0 0 0-168.448-98.157714 313.782857 313.782857 0 0 0 121.417143-75.702857 312.758857 312.758857 0 0 0 92.306286-222.500572A312.32 312.32 0 0 0 734.646857 94.354286 312.758857 312.758857 0 0 0 512.146286 2.194286a312.32 312.32 0 0 0-222.573715 92.16A312.758857 312.758857 0 0 0 197.485714 316.781714a312.32 312.32 0 0 0 92.16 222.500572A313.782857 313.782857 0 0 0 411.062857 614.985143 380.342857 380.342857 0 0 0 242.614857 713.142857a380.342857 380.342857 0 0 0-111.616 269.604572 41.106286 41.106286 0 1 0 82.285714 0 296.96 296.96 0 0 1 87.552-211.382858 296.96 296.96 0 0 1 211.382858-87.625142 296.96 296.96 0 0 1 211.382857 87.552 296.96 296.96 0 0 1 87.625143 211.382857 41.106286 41.106286 0 1 0 82.285714 0 383.414857 383.414857 0 0 0-30.208-148.406857zM279.552 316.781714A232.740571 232.740571 0 0 1 512 84.333714a232.740571 232.740571 0 0 1 232.448 232.448A232.594286 232.594286 0 0 1 512 549.302857a232.740571 232.740571 0 0 1-232.448-232.448z"  fill-opacity=".25" /></svg>