<?xml version="1.0" standalone="no"?><!DOCTYPE svg PUBLIC "-//W3C//DTD SVG 1.1//EN" "http://www.w3.org/Graphics/SVG/1.1/DTD/svg11.dtd"><svg class="icon" width="200px" height="200.00px" viewBox="0 0 1024 1024" version="1.1" xmlns="http://www.w3.org/2000/svg"><path fill="#333333" d="M512 0c282.6752 0 512 229.3248 512 512s-229.3248 512-512 512S0 794.6752 0 512 229.3248 0 512 0z m311.0912 823.0912a436.0704 436.0704 0 0 0 94.3104-139.8784A435.7632 435.7632 0 0 0 952.0128 512c0-59.392-11.6224-116.992-34.6112-171.2128a437.76 437.76 0 0 0-94.3104-139.8784A439.3472 439.3472 0 0 0 512 71.9872c-59.392 0-116.992 11.6224-171.2128 34.6112a437.76 437.76 0 0 0-139.8784 94.3104A439.3472 439.3472 0 0 0 71.9872 512c0 59.392 11.6224 116.992 34.6112 171.2128a437.76 437.76 0 0 0 94.3104 139.8784A439.3472 439.3472 0 0 0 512 952.0128c59.392 0 116.992-11.6224 171.2128-34.6112a437.76 437.76 0 0 0 139.8784-94.3104zM465.92 344.2176c4.096-21.1456 7.7824-47.3088 11.1104-78.336 0.5632-19.968 14.6432-33.792 31.232-30.0544 19.4048 0 31.1808 14.2848 31.0784 35.2768-2.6624 30.7712-5.632 55.04-9.0112 73.1136h20.992a32.4608 32.4608 0 0 1 15.6672-22.1184 338.0736 338.0736 0 0 0 70.8608-67.4304c13.1072-16.5888 33.0752-19.1488 47.9232-4.096 13.3632 13.5168 13.3632 31.6416 0.7168 47.616-15.2576 16.9984-30.5664 32.3584-46.08 46.08h75.8784c19.1488 0 33.3312 11.8784 33.3312 31.2832s-14.1824 31.3344-33.3312 31.3344h-202.9056c-3.8912 9.216-8.192 18.7392-12.8 28.416h243.5584c18.2272 0 29.0816 13.6704 29.0816 31.3344 0 17.6128-10.8544 31.2832-29.0816 31.2832H655.872a589.824 589.824 0 0 0 112.5376 79.6672c14.848 9.984 22.6304 24.1152 19.3536 40.448l-2.4576 6.5024c-10.0864 16.9984-28.416 21.0944-45.9264 12.288a382.0032 382.0032 0 0 1-52.0704-31.488c-0.768 60.8768-6.7584 104.448-18.432 130.9696-23.04 60.1088-87.3984 61.9008-181.248 15.9744-17.6128-7.1168-24.7808-24.064-17.8176-41.6768l2.56-4.6592c10.0352-13.4656 25.7536-17.408 42.9056-10.4448 56.6784 28.672 84.8896 29.696 94.208 10.6496 8.192-11.3152 14.1312-46.08 15.5136-101.888 0.768-14.5408 1.28-13.824-5.2736-13.1072h-99.328c-28.0576 118.528-106.3936 185.344-233.1648 197.3248-16.9984 0-29.6448-10.6496-33.28-31.3344 0-16.9984 10.4448-29.696 29.0816-33.3824 96.256-9.728 152.4224-53.0944 172.3392-132.608H400.896a31.232 31.232 0 0 1-22.016-8.192c-28.5696 22.8352-59.9552 42.6496-93.9008 59.4432-15.7184 9.5232-33.28 7.3216-44.2368-7.4752l-2.6112-4.6592c-6.656-16.7936-0.6144-33.024 16.384-43.264a476.7744 476.7744 0 0 0 125.6448-89.088h-116.736l-5.376-3.84c-21.2992-15.4112-21.2992-39.4752 0-54.8864l5.376-3.8912h165.4272c3.9424-6.5536 8.704-16.0768 14.2336-28.416H310.784c-18.2272 0-29.0304-13.7216-29.0304-31.3344 0-18.4832 12.6976-31.3344 31.232-31.3344h58.9824a370.9952 370.9952 0 0 0-56.3712-47.7184c-14.592-11.0592-16.7424-28.416-4.352-48.128 11.776-11.8784 27.8016-11.8784 43.008-2.6624 30.4128 19.968 58.4704 46.08 84.1216 78.1312 5.12 6.4 8.192 13.3632 9.1136 20.3776h18.3296z m131.84 184.32c-9.7792-9.6768-19.712-19.8656-29.7984-30.6176H462.6432a492.7488 492.7488 0 0 1-25.6 30.6176h160.6656z"  opacity=".65" /></svg>