<?xml version="1.0" encoding="UTF-8"?>
<svg width="20px" height="20px" viewBox="0 0 20 20" version="1.1" xmlns="http://www.w3.org/2000/svg" xmlns:xlink="http://www.w3.org/1999/xlink">
    <!-- Generator: Sketch 54.1 (76490) - https://sketchapp.com -->
    <title>yuyuen</title>
    <desc>Created with Sketch.</desc>
    <g id="预约" stroke="none" stroke-width="1">
        <g id="店铺管理/店铺列表" transform="translate(-1612.000000, -533.000000)" >
            <g id="yuyuen" transform="translate(1612.000000, 533.000000)">
                <path d="M10,1.42752294 C14.7324771,1.42752294 18.5724771,5.26752294 18.5724771,10 C18.5724771,14.7324771 14.7324771,18.5724771 10,18.5724771 C5.26752294,18.5724771 1.42752294,14.7324771 1.42752294,10 C1.42752294,5.26752294 5.26752294,1.42752294 10,1.42752294 L10,1.42752294 Z M10,0.0183486239 C4.49247706,0.0183486239 0.0183486239,4.49247706 0.0183486239,10 C0.0183486239,15.5075229 4.49247706,19.9816514 10,19.9816514 C15.5075229,19.9816514 19.9816514,15.5075229 19.9816514,10 C19.9816514,4.49247706 15.5075229,0.0183486239 10,0.0183486239 Z" id="形状"></path>
                <polygon id="路径" points="10.7045872 4.53944954 9.29541284 4.53944954 9.29541284 10.7280734 10.7045872 10.7280734"></polygon>
                <polygon id="路径" points="14.1218349 11.5618349 14.1218349 10.1526606 9.29541284 10.1526606 9.29541284 11.5618349"></polygon>
                <path d="M9.29541284,4.53944954 C9.29541284,4.92858228 9.61086726,5.2440367 10,5.2440367 C10.3891327,5.2440367 10.7045872,4.92858228 10.7045872,4.53944954 C10.7045872,4.28772479 10.5702936,4.05512152 10.3522936,3.92925914 C10.1342936,3.80339676 9.86570644,3.80339676 9.64770641,3.92925914 C9.42970638,4.05512152 9.29541283,4.28772479 9.29541284,4.53944954 L9.29541284,4.53944954 Z" id="路径"></path>
                <path d="M13.4172477,10.8572477 C13.4172477,11.2463804 13.7327021,11.5618349 14.1218349,11.5618349 C14.5109676,11.5618349 14.826422,11.2463804 14.826422,10.8572477 C14.826422,10.468115 14.5109676,10.1526606 14.1218349,10.1526606 C13.7327021,10.1526606 13.4172477,10.468115 13.4172477,10.8572477 L13.4172477,10.8572477 Z" id="路径"></path>
            </g>
        </g>
    </g>
</svg>