<?xml version="1.0" encoding="UTF-8"?>
<svg width="20px" height="20px" viewBox="0 0 20 20" version="1.1" xmlns="http://www.w3.org/2000/svg" xmlns:xlink="http://www.w3.org/1999/xlink">
    <!-- Generator: Sketch 54.1 (76490) - https://sketchapp.com -->
    <title>zhangdan</title>
    <desc>Created with Sketch.</desc>
    <g id="预约" stroke="none" stroke-width="1">
        <g id="店铺管理/店铺列表" transform="translate(-1580.000000, -533.000000)">
            <g id="zhangdan" transform="translate(1580.000000, 533.000000)">
                <path d="M0,4.05940594 C0,2.74704614 1.06387782,1.68316832 2.37623762,1.68316832 L17.6237624,1.68316832 C18.9361222,1.68316832 20,2.74704614 20,4.05940594 L20,17.029703 C20,18.3420628 18.9361222,19.4059406 17.6237624,19.4059406 L2.37623762,19.4059406 C1.06387782,19.4059406 0,18.3420628 0,17.029703 L0,4.05940594 Z M2.37623762,3.26732673 C1.93878436,3.26732673 1.58415842,3.62195267 1.58415842,4.05940594 L1.58415842,17.029703 C1.58415842,17.4671562 1.93878436,17.8217822 2.37623762,17.8217822 L17.6237624,17.8217822 C18.0612156,17.8217822 18.4158416,17.4671562 18.4158416,17.029703 L18.4158416,4.05940594 C18.4158416,3.62195267 18.0612156,3.26732673 17.6237624,3.26732673 L2.37623762,3.26732673 Z" id="形状"></path>
                <path d="M5.54455446,0 C5.98200772,0 6.33663366,0.354625941 6.33663366,0.792079208 L6.33663366,4.05940594 C6.33663366,4.49685921 5.98200772,4.85148515 5.54455446,4.85148515 C5.10710119,4.85148515 4.75247525,4.49685921 4.75247525,4.05940594 L4.75247525,0.792079208 C4.75247525,0.354625941 5.10710119,0 5.54455446,0 Z M14.5544554,0 C14.9919087,0 15.3465347,0.354625941 15.3465347,0.792079208 L15.3465347,4.05940594 C15.3465347,4.49685921 14.9919087,4.85148515 14.5544554,4.85148515 C14.1170022,4.85148515 13.7623762,4.49685921 13.7623762,4.05940594 L13.7623762,0.792079208 C13.7623762,0.354625941 14.1170022,0 14.5544554,0 Z M6.30534653,6.5960396 C6.42040104,6.42024621 6.60058391,6.29736519 6.80624831,6.25443488 C7.01191271,6.21150457 7.22620759,6.25204246 7.4019802,6.36712871 L10.0364356,8.09148515 L12.5893069,6.37267327 C12.9521397,6.12982044 13.4430704,6.22637022 13.686916,6.58853658 C13.9307616,6.95070293 13.8355566,7.44189618 13.4740594,7.68673267 L10.8348515,9.46376238 L10.8348515,10.0110891 L14.0594059,10.0110891 C14.4968592,10.0110891 14.8514851,10.365715 14.8514851,10.8031683 C14.8514851,11.2406216 14.4968592,11.5952475 14.0594059,11.5952475 L10.8348515,11.5952475 L10.8348515,12.689901 L14.0657426,12.7152475 C14.5031958,12.7187472 14.8549847,13.0762101 14.8514851,13.5136634 C14.8479855,13.9511166 14.4905226,14.3029055 14.0530693,14.2994059 L10.8348515,14.2740594 L10.8348515,15.6435644 C10.8348515,16.0810176 10.4802255,16.4356436 10.0427723,16.4356436 C9.60531901,16.4356436 9.25069307,16.0810176 9.25069307,15.6435644 L9.25069307,14.2677228 L5.94059406,14.2677228 C5.50314079,14.2677228 5.14851485,13.9130968 5.14851485,13.4756436 C5.14851485,13.0381903 5.50314079,12.6835644 5.94059406,12.6835644 L9.25069307,12.6835644 L9.25069307,11.5952475 L5.94059406,11.5952475 C5.50314079,11.5952475 5.14851485,11.2406216 5.14851485,10.8031683 C5.14851485,10.365715 5.50314079,10.0110891 5.94059406,10.0110891 L9.25069307,10.0110891 L9.25069307,9.47049505 L6.53425743,7.69227723 C6.16842778,7.45270336 6.06595982,6.96199174 6.30534653,6.5960396 Z" id="形状"></path>
            </g>
        </g>
    </g>
</svg>