<?xml version="1.0" encoding="UTF-8"?>
<svg width="18px" height="18px" viewBox="0 0 18 18" version="1.1" xmlns="http://www.w3.org/2000/svg" xmlns:xlink="http://www.w3.org/1999/xlink">
    <!-- Generator: Sketch 53 (72520) - https://sketchapp.com -->
    <title>zhangmu</title>
    <desc>Created with Sketch.</desc>
    <g id="店铺管理" stroke="none" stroke-width="1" fill="none" fill-rule="evenodd">
        <g id="店铺管理/店铺列表/分账1" transform="translate(-1513.000000, -479.000000)" fill="#595959" fill-rule="nonzero">
            <g id="zhangmu" transform="translate(1513.000000, 479.000000)">
                <path d="M16.3928571,1.20535714 C16.6138393,1.20535714 16.7946429,1.38616071 16.7946429,1.60714285 L16.7946429,16.3928571 C16.7946429,16.6138393 16.6138393,16.7946429 16.3928571,16.7946429 L1.60714285,16.7946429 C1.38616071,16.7946429 1.20535714,16.6138393 1.20535714,16.3928571 L1.20535714,1.60714285 C1.20535714,1.38616071 1.38616071,1.20535714 1.60714285,1.20535714 L16.3928571,1.20535714 L16.3928571,1.20535714 Z M16.3928571,0 L1.60714285,0 C0.719196424,0 0,0.719196424 0,1.60714285 L0,16.3928571 C0,17.2808036 0.719196424,18 1.60714285,18 L16.3928571,18 C17.2808036,18 18,17.2808036 18,16.3928571 L18,1.60714285 C18,0.719196424 17.2808036,2.2841104e-15 16.3928571,2.2841104e-15 L16.3928571,0 Z" id="形状"></path>
                <polygon id="路径" points="14.4 0 15.84 0 15.84 18 14.4 18"></polygon>
                <polygon id="路径" points="12.24 4.32 11.3377449 4.32 9 8.82916808 6.66225513 4.32 5.76 4.32 8.3302278 9.11918507 6.36888382 9.11918507 6.36888382 9.65551782 8.61068336 9.65551782 8.61068336 11.0321053 6.36888382 11.0321053 6.36888382 11.5704244 8.61068336 11.5704244 8.61068336 13.68 9.38931664 13.68 9.38931664 11.5704244 11.6311162 11.5704244 11.6311162 11.0321053 9.38931664 11.0321053 9.38931664 9.65551782 11.6311162 9.65551782 11.6311162 9.11918507 9.6697722 9.11918507"></polygon>
            </g>
        </g>
    </g>
</svg>