<?xml version="1.0" standalone="no"?><!DOCTYPE svg PUBLIC "-//W3C//DTD SVG 1.1//EN" "http://www.w3.org/Graphics/SVG/1.1/DTD/svg11.dtd"><svg class="icon" width="200px" height="200.00px" viewBox="0 0 1024 1024" version="1.1" xmlns="http://www.w3.org/2000/svg"><path  d="M512 0a512 512 0 0 0-512 512 512 512 0 0 0 512 512 512 512 0 0 0 512-512 512 512 0 0 0-512-512z m311.04 823.04a437.76 437.76 0 0 1-139.84 94.336c-54.208 23.04-111.808 34.624-171.2 34.624a437.44 437.44 0 0 1-311.04-128.768 437.76 437.76 0 0 1-94.336-139.904A436.608 436.608 0 0 1 72 512a437.44 437.44 0 0 1 128.832-311.04 437.76 437.76 0 0 1 139.84-94.336A436.608 436.608 0 0 1 512 72a437.44 437.44 0 0 1 311.04 128.832 437.76 437.76 0 0 1 94.336 139.84c23.04 54.336 34.624 111.936 34.624 171.328a437.44 437.44 0 0 1-128.896 311.04z m-192.832-117.44H545.024v-350.08a35.968 35.968 0 0 0-36.032-36.032h-96a35.968 35.968 0 1 0 0 72h60.032v314.112H387.776a35.968 35.968 0 1 0 0 72h242.368a35.968 35.968 0 1 0 0-72zM472.96 220.48a36.032 36.032 0 1 0 72 0 36.032 36.032 0 0 0-72 0z"  opacity=".65" /></svg>